<mxfile host="app.diagrams.net" modified="2024-03-29T17:30:09.654Z" agent="Mozilla/5.0 (Macintosh; Intel Mac OS X 10_15_7) AppleWebKit/537.36 (KHTML, like Gecko) Chrome/122.0.0.0 Safari/537.36" etag="KFn5uRu3KyG9dIxH9bd3" version="24.0.7" type="device">
  <diagram id="C5RBs43oDa-KdzZeNtuy" name="Page-1">
    <mxGraphModel dx="958" dy="1316" grid="0" gridSize="10" guides="1" tooltips="1" connect="1" arrows="1" fold="1" page="1" pageScale="1" pageWidth="827" pageHeight="1169" math="0" shadow="0">
      <root>
        <mxCell id="WIyWlLk6GJQsqaUBKTNV-0" />
        <mxCell id="WIyWlLk6GJQsqaUBKTNV-1" parent="WIyWlLk6GJQsqaUBKTNV-0" />
        <mxCell id="AQDEDZSOGcC9H5lW4dlP-2" value="" style="edgeStyle=orthogonalEdgeStyle;rounded=0;orthogonalLoop=1;jettySize=auto;html=1;endArrow=block;endFill=1;" parent="WIyWlLk6GJQsqaUBKTNV-1" source="AQDEDZSOGcC9H5lW4dlP-0" target="AQDEDZSOGcC9H5lW4dlP-1" edge="1">
          <mxGeometry relative="1" as="geometry" />
        </mxCell>
        <mxCell id="AQDEDZSOGcC9H5lW4dlP-0" value="VA.gov Frontend" style="rounded=1;whiteSpace=wrap;html=1;" parent="WIyWlLk6GJQsqaUBKTNV-1" vertex="1">
          <mxGeometry x="80" y="110" width="120" height="60" as="geometry" />
        </mxCell>
        <mxCell id="AQDEDZSOGcC9H5lW4dlP-14" style="edgeStyle=orthogonalEdgeStyle;rounded=0;orthogonalLoop=1;jettySize=auto;html=1;entryX=0;entryY=0.5;entryDx=0;entryDy=0;endArrow=block;endFill=0;" parent="WIyWlLk6GJQsqaUBKTNV-1" source="AQDEDZSOGcC9H5lW4dlP-1" target="AQDEDZSOGcC9H5lW4dlP-3" edge="1">
          <mxGeometry relative="1" as="geometry">
            <Array as="points">
              <mxPoint x="527" y="140" />
              <mxPoint x="527" y="100" />
            </Array>
          </mxGeometry>
        </mxCell>
        <mxCell id="AQDEDZSOGcC9H5lW4dlP-15" style="edgeStyle=orthogonalEdgeStyle;rounded=0;orthogonalLoop=1;jettySize=auto;html=1;entryX=0;entryY=0.5;entryDx=0;entryDy=0;endArrow=block;endFill=0;" parent="WIyWlLk6GJQsqaUBKTNV-1" source="AQDEDZSOGcC9H5lW4dlP-1" target="AQDEDZSOGcC9H5lW4dlP-4" edge="1">
          <mxGeometry relative="1" as="geometry">
            <Array as="points">
              <mxPoint x="527" y="140" />
              <mxPoint x="527" y="180" />
            </Array>
          </mxGeometry>
        </mxCell>
        <mxCell id="AQDEDZSOGcC9H5lW4dlP-1" value="&lt;div&gt;&lt;font style=&quot;font-size: 12px;&quot;&gt;bcas_letters_use_lighthouse&lt;/font&gt;&lt;/div&gt;&lt;div&gt;&lt;font style=&quot;font-size: 10px;&quot;&gt;(Feature toggle)&lt;/font&gt;&lt;/div&gt;" style="rounded=1;whiteSpace=wrap;html=1;" parent="WIyWlLk6GJQsqaUBKTNV-1" vertex="1">
          <mxGeometry x="250" y="110" width="220" height="60" as="geometry" />
        </mxCell>
        <mxCell id="AQDEDZSOGcC9H5lW4dlP-3" value="Lighthouse Letters Generator" style="rounded=1;whiteSpace=wrap;html=1;" parent="WIyWlLk6GJQsqaUBKTNV-1" vertex="1">
          <mxGeometry x="610" y="70" width="148" height="60" as="geometry" />
        </mxCell>
        <mxCell id="AQDEDZSOGcC9H5lW4dlP-4" value="EVSS" style="rounded=1;whiteSpace=wrap;html=1;" parent="WIyWlLk6GJQsqaUBKTNV-1" vertex="1">
          <mxGeometry x="610" y="150" width="152" height="60" as="geometry" />
        </mxCell>
        <mxCell id="AQDEDZSOGcC9H5lW4dlP-8" value="Enabled" style="text;html=1;align=center;verticalAlign=middle;whiteSpace=wrap;rounded=0;" parent="WIyWlLk6GJQsqaUBKTNV-1" vertex="1">
          <mxGeometry x="530" y="65" width="60" height="30" as="geometry" />
        </mxCell>
        <mxCell id="AQDEDZSOGcC9H5lW4dlP-10" value="Disabled" style="text;html=1;align=center;verticalAlign=middle;whiteSpace=wrap;rounded=0;" parent="WIyWlLk6GJQsqaUBKTNV-1" vertex="1">
          <mxGeometry x="530" y="184" width="60" height="30" as="geometry" />
        </mxCell>
      </root>
    </mxGraphModel>
  </diagram>
</mxfile>
